<svg width="88" height="88" viewBox="0 0 88 88" fill="none" xmlns="http://www.w3.org/2000/svg">
<path d="M69.5736 56.3769C70.1919 53.1863 70.2318 49.9433 69.7413 46.7815C68.9698 50.8562 67.6326 54.8105 64.5048 57.3842C63.3024 58.3737 61.8944 59.0934 60.4307 59.6265C55.8858 61.2814 50.7076 61.121 46.2747 59.1871C41.6324 57.1628 37.8962 53.3402 33.1206 51.6539C28.9249 50.1725 24.248 50.4921 20.0045 51.83C19.5332 51.9787 19.0666 52.1398 18.6042 52.3114C19.4301 52.2492 20.2584 52.2184 21.0886 52.223C25.5381 52.2472 30.0884 53.3749 33.6294 56.0691C37.6599 59.1353 40.0471 63.918 43.8469 67.2664C47.4757 70.4636 52.356 72.2017 57.1897 72.0163C57.8583 71.9908 58.5283 71.9292 59.1897 71.8218C65.5225 67.4688 68.5422 61.7005 69.5736 56.3769Z" fill="#76BD5A"/>
<path d="M43.847 67.2666C40.0473 63.9182 37.66 59.1355 33.6296 56.0693C30.0885 53.3751 25.5382 52.2474 21.0888 52.2232C20.2585 52.2186 19.4302 52.2494 18.6043 52.3116C18.376 52.396 18.1487 52.4832 17.9224 52.5729C17.9889 53.8434 18.143 55.1145 18.3875 56.3771C19.4105 61.6575 22.3978 67.3753 28.6326 71.7153C37.7645 78.0723 49.8767 78.1581 59.0759 71.8999C59.1139 71.8737 59.1519 71.8476 59.1899 71.822C58.5284 71.9294 57.8585 71.991 57.1898 72.0165C52.3561 72.2018 47.4759 70.4638 43.847 67.2666Z" fill="#76BD5A"/>
<path d="M36.0479 36.2863C35.7807 36.2863 35.5633 36.0695 35.5633 35.8017C35.5633 35.5338 35.7807 35.3171 36.0479 35.3171C36.3158 35.3171 36.5332 35.5338 36.5332 35.8017C36.5332 36.0695 36.3158 36.2863 36.0479 36.2863ZM35.0014 36.7022C34.8233 36.7022 34.6786 36.5574 34.6786 36.3786C34.6786 36.2005 34.8233 36.0558 35.0014 36.0558C35.1802 36.0558 35.3249 36.2005 35.3249 36.3786C35.3249 36.5574 35.1802 36.7022 35.0014 36.7022ZM34.3786 35.5554C34.2889 35.5554 34.2169 35.4834 34.2169 35.3937C34.2169 35.3046 34.2889 35.2326 34.3786 35.2326C34.4677 35.2326 34.5404 35.3046 34.5404 35.3937C34.5404 35.4834 34.4677 35.5554 34.3786 35.5554ZM40.2111 35.0014C39.7376 35.0014 39.342 35.2051 39.2431 35.4769C39.0329 35.4703 38.8089 35.467 38.5758 35.467C38.1115 35.467 37.6825 35.4801 37.3328 35.5024C37.3092 35.3184 37.2673 35.1396 37.2097 34.9687C37.3047 34.9372 37.4022 34.9051 37.5018 34.8717C37.693 34.8082 37.8764 34.7447 38.048 34.6844C38.1698 34.7787 38.5247 34.7611 38.9137 34.6307C39.3636 34.4801 39.6878 34.2365 39.638 34.0872C39.5876 33.9372 39.1822 33.9372 38.7323 34.0878C38.3885 34.2031 38.1187 34.3721 38.0322 34.5129C37.8482 34.5705 37.6511 34.6347 37.4455 34.7034C37.344 34.7375 37.2444 34.7715 37.1481 34.8043C37.082 34.6438 37.0001 34.4913 36.9065 34.3472C36.9883 34.2889 37.0787 34.2228 37.173 34.1501C37.2405 34.0983 37.3047 34.0472 37.3643 33.9988C37.4533 34.0551 37.6131 34.0263 37.75 33.9202C37.9085 33.7984 37.9766 33.6209 37.9019 33.524C37.8273 33.4264 37.638 33.4467 37.4795 33.5692C37.3584 33.6622 37.2903 33.7879 37.2981 33.8855C37.232 33.9326 37.1619 33.985 37.0892 34.0407C36.9969 34.1121 36.9117 34.1808 36.8351 34.2444C36.748 34.1232 36.6511 34.0093 36.545 33.9038C36.5869 33.8599 36.6341 33.8089 36.6825 33.7525C36.7126 33.7185 36.7401 33.6851 36.7663 33.6537C36.8187 33.6733 36.8986 33.6419 36.9589 33.5724C37.0283 33.4919 37.0447 33.3924 36.9956 33.3498C36.9464 33.3072 36.8502 33.338 36.7808 33.4179C36.7277 33.4795 36.7054 33.5515 36.7198 33.6013C36.6904 33.6334 36.6596 33.6681 36.6275 33.7047C36.5797 33.7597 36.5358 33.8128 36.4991 33.8599C36.3701 33.7375 36.23 33.6275 36.0794 33.5312C36.1173 33.4618 36.1566 33.391 36.1959 33.319C36.2922 33.1422 36.3839 32.9713 36.4684 32.8102C36.6216 32.7964 36.8698 32.5417 37.0656 32.1815C37.2929 31.765 37.3649 31.3655 37.2261 31.2902C37.0872 31.2142 36.7906 31.4906 36.5633 31.9077C36.3898 32.226 36.3073 32.5331 36.34 32.6949C36.2444 32.8625 36.1435 33.044 36.0401 33.2345C36.0014 33.3039 35.9641 33.3734 35.9281 33.4408C35.7689 33.3537 35.6013 33.281 35.4251 33.226C35.4382 33.1592 35.4513 33.0878 35.4638 33.0138C35.4775 32.93 35.49 32.8494 35.5004 32.7735C35.6039 32.7538 35.7008 32.6242 35.7297 32.4532C35.7631 32.2561 35.6917 32.08 35.5705 32.0597C35.45 32.0394 35.3249 32.1828 35.2922 32.3799C35.2666 32.5312 35.3027 32.6694 35.3747 32.7355C35.359 32.8154 35.3426 32.9012 35.3276 32.9916C35.3164 33.0597 35.3059 33.1265 35.2968 33.1893C35.1199 33.1435 34.9359 33.1147 34.7467 33.1049C34.7499 32.9516 34.7519 32.7918 34.7519 32.6281C34.7519 32.395 34.748 32.1703 34.7421 31.9608C35.0139 31.8619 35.2169 31.4663 35.2169 30.9928C35.2169 30.4447 34.9451 30 34.6091 30C34.2738 30 34.0014 30.4447 34.0014 30.9928C34.0014 31.4113 34.1605 31.7689 34.3858 31.9149C34.3786 32.1376 34.3747 32.3773 34.3747 32.6281C34.3747 32.7938 34.3767 32.9555 34.3793 33.1107C34.2175 33.1238 34.059 33.15 33.9064 33.1893C33.8973 33.1258 33.8868 33.0597 33.8757 32.9916C33.8606 32.9012 33.8449 32.8154 33.8285 32.7355C33.9005 32.6694 33.9366 32.5312 33.911 32.3799C33.8783 32.1828 33.7532 32.0394 33.6327 32.0597C33.5115 32.08 33.4408 32.2561 33.4736 32.4532C33.5024 32.6242 33.5993 32.7538 33.7034 32.7735C33.7133 32.8494 33.7257 32.93 33.7401 33.0138C33.7525 33.0878 33.765 33.1592 33.7781 33.226C33.6026 33.281 33.4343 33.3537 33.2758 33.4408C33.2391 33.3727 33.2018 33.3039 33.1638 33.2345C33.0603 33.044 32.9588 32.8625 32.8639 32.6949C32.8966 32.5331 32.8141 32.226 32.6405 31.9077C32.4133 31.4906 32.1166 31.2142 31.9778 31.2902C31.839 31.3655 31.9103 31.765 32.1376 32.1815C32.3341 32.5417 32.5816 32.7964 32.7355 32.8102C32.82 32.9713 32.911 33.1422 33.0079 33.319C33.0472 33.391 33.0859 33.4618 33.1245 33.5312C32.9739 33.6268 32.8331 33.7368 32.7041 33.8593C32.6674 33.8128 32.6235 33.7597 32.5757 33.7047C32.5443 33.6681 32.5128 33.6334 32.4834 33.6013C32.4978 33.5515 32.4762 33.4795 32.4225 33.4179C32.353 33.338 32.2568 33.3072 32.2077 33.3498C32.1585 33.3924 32.1749 33.4919 32.245 33.5724C32.3052 33.6419 32.3851 33.6733 32.4375 33.6537C32.4631 33.6851 32.4912 33.7185 32.5207 33.7525C32.5692 33.8089 32.6163 33.8599 32.6582 33.9038C32.5521 34.0086 32.4559 34.1232 32.3681 34.2444C32.2921 34.1808 32.2064 34.1121 32.114 34.0407C32.042 33.985 31.9712 33.9326 31.9051 33.8855C31.9136 33.7879 31.8455 33.6622 31.7244 33.5692C31.5659 33.4467 31.3766 33.4264 31.3019 33.524C31.2273 33.6209 31.2947 33.7984 31.4532 33.9202C31.5908 34.0263 31.7499 34.0551 31.8396 33.9988C31.8986 34.0472 31.9627 34.0983 32.0302 34.1501C32.1245 34.2228 32.2149 34.2889 32.2974 34.3472C32.2031 34.4906 32.1219 34.6438 32.0551 34.8043C31.9588 34.7715 31.8593 34.7375 31.7578 34.7034C31.5528 34.6347 31.355 34.5705 31.171 34.5129C31.0852 34.3721 30.8154 34.2031 30.4716 34.0878C30.021 33.9372 29.6156 33.9372 29.5658 34.0872C29.5154 34.2365 29.8396 34.4801 30.2895 34.6307C30.6785 34.7611 31.0334 34.7787 31.1553 34.6844C31.3268 34.7447 31.5102 34.8082 31.7014 34.8717C31.801 34.9051 31.8986 34.9372 31.9935 34.968C31.9359 35.1396 31.894 35.3184 31.8704 35.5024C31.5207 35.4801 31.0917 35.467 30.6274 35.467C30.3943 35.467 30.1703 35.4703 29.9607 35.4769C29.8619 35.2051 29.4663 35.0014 28.9928 35.0014C28.444 35.0014 28 35.2738 28 35.6091C28 35.9451 28.444 36.2169 28.9928 36.2169C29.4113 36.2169 29.7689 36.0577 29.9149 35.8331C30.1376 35.8403 30.3772 35.8443 30.6274 35.8443C31.0819 35.8443 31.5023 35.8312 31.8481 35.8095C31.8481 35.8253 31.8468 35.8403 31.8468 35.8554C31.8468 36.0093 31.8599 36.1599 31.8841 36.3066C31.6844 36.3695 31.467 36.4402 31.2397 36.5155C31.0485 36.5797 30.8651 36.6426 30.6936 36.7035C30.5718 36.6092 30.2168 36.6268 29.8278 36.7572C29.3779 36.9071 29.0537 37.1508 29.1041 37.3007C29.1539 37.4507 29.5593 37.45 30.0099 37.3001C30.3537 37.1848 30.6235 37.0158 30.7093 36.875C30.8933 36.8168 31.0911 36.7526 31.2961 36.6845C31.5154 36.6111 31.7244 36.5391 31.9169 36.4703C31.9667 36.6891 32.042 36.8973 32.1402 37.0925C32.0433 37.1586 31.932 37.2398 31.8147 37.3302C31.7473 37.3819 31.6831 37.433 31.6242 37.4815C31.5344 37.4252 31.3753 37.454 31.2378 37.5594C31.0793 37.6819 31.0118 37.8593 31.0865 37.9563C31.1612 38.0532 31.3504 38.0335 31.5089 37.9111C31.6301 37.8181 31.6982 37.6924 31.6896 37.5948C31.7558 37.547 31.8265 37.4946 31.8986 37.4389C32.0092 37.3544 32.1107 37.2719 32.1965 37.1986C32.2777 37.3433 32.3707 37.4808 32.4762 37.6079C32.4231 37.6596 32.355 37.7316 32.2836 37.8142C32.2542 37.8482 32.226 37.8816 32.2005 37.913C32.1481 37.8927 32.0682 37.9248 32.0079 37.9943C31.9378 38.0742 31.9215 38.1737 31.9706 38.2169C32.0197 38.2595 32.116 38.2287 32.1854 38.1488C32.2384 38.0872 32.2607 38.0146 32.2463 37.9648C32.2758 37.9333 32.3072 37.8986 32.3386 37.862C32.4081 37.7821 32.4683 37.7074 32.5115 37.6485C32.6412 37.7998 32.7859 37.9366 32.9451 38.0565C32.8305 38.2562 32.7054 38.4789 32.577 38.7146C32.4801 38.8921 32.3891 39.063 32.3046 39.2241C32.1507 39.2379 31.9031 39.4926 31.7067 39.8528C31.4794 40.2693 31.408 40.6682 31.5469 40.7441C31.6857 40.8201 31.9824 40.5431 32.2096 40.1266C32.3832 39.8083 32.4657 39.5005 32.4329 39.3394C32.5279 39.1711 32.6294 38.9897 32.7329 38.7998C32.858 38.5706 32.9745 38.3505 33.0787 38.1508C33.2646 38.2745 33.467 38.3761 33.6812 38.452C33.6497 38.5817 33.6163 38.7467 33.5862 38.9275C33.5718 39.012 33.5594 39.0925 33.5495 39.1685C33.4454 39.1875 33.3485 39.3178 33.3197 39.4887C33.2869 39.6858 33.3576 39.862 33.4788 39.8823C33.6 39.9026 33.7244 39.7592 33.7571 39.5614C33.7827 39.4108 33.7466 39.2726 33.6746 39.2065C33.691 39.1266 33.7067 39.0408 33.7218 38.9504C33.7506 38.7775 33.7722 38.6171 33.7853 38.4874C34.0119 38.5575 34.2516 38.5987 34.4991 38.6079C34.4985 38.6878 34.4978 38.7696 34.4978 38.8522C34.4978 39.1023 34.5017 39.3427 34.5089 39.5653C34.2837 39.7107 34.1245 40.0683 34.1245 40.4874C34.1245 41.0356 34.397 41.4802 34.7323 41.4802C35.0682 41.4802 35.34 41.0356 35.34 40.4874C35.34 40.0139 35.137 39.6184 34.8652 39.5195C34.8711 39.3093 34.875 39.0853 34.875 38.8522C34.875 38.7657 34.8744 38.6806 34.8731 38.5968C35.0721 38.5771 35.2647 38.5365 35.4487 38.4769C35.4494 38.4808 35.45 38.4848 35.4507 38.4887C35.4657 38.5791 35.4821 38.6649 35.4978 38.7448C35.4258 38.8109 35.3898 38.9491 35.4153 39.0997C35.4481 39.2975 35.5731 39.4409 35.6936 39.4206C35.8148 39.4003 35.8862 39.2241 35.8528 39.027C35.824 38.8561 35.727 38.7264 35.6236 38.7068C35.6131 38.6308 35.6006 38.5503 35.5869 38.4658C35.5849 38.454 35.5823 38.4422 35.5803 38.4304C35.7696 38.3584 35.9484 38.2667 36.1147 38.1573C36.1304 38.1868 36.1468 38.2163 36.1632 38.2457C36.2667 38.4357 36.3675 38.6177 36.4631 38.7854C36.4304 38.9465 36.5129 39.2543 36.6864 39.5725C36.9137 39.9897 37.2104 40.2661 37.3492 40.1901C37.488 40.1141 37.416 39.7153 37.1887 39.2988C36.9929 38.9386 36.7447 38.6839 36.5915 38.6701C36.507 38.509 36.4153 38.3381 36.3191 38.1606C36.2994 38.1252 36.2798 38.0899 36.2608 38.0545C36.4088 37.9425 36.545 37.8161 36.6674 37.6766C36.693 37.7081 36.7212 37.7415 36.7506 37.7755C36.7827 37.8122 36.8135 37.8469 36.843 37.8783C36.8286 37.9281 36.8508 38.0008 36.9039 38.0624C36.9733 38.1423 37.0696 38.173 37.1187 38.1305C37.1678 38.0879 37.1514 37.9877 37.082 37.9078C37.0217 37.8384 36.9419 37.8063 36.8895 37.8266C36.8633 37.7952 36.8358 37.7618 36.8056 37.7277C36.7735 37.691 36.7428 37.6563 36.7133 37.6242C36.8109 37.5077 36.8986 37.3826 36.9766 37.251C37.0479 37.3099 37.1278 37.3741 37.2123 37.4389C37.285 37.4946 37.3551 37.547 37.4212 37.5948C37.4134 37.6924 37.4815 37.8181 37.6026 37.9111C37.7611 38.0335 37.9504 38.0532 38.025 37.9563C38.0997 37.8593 38.0316 37.6819 37.8731 37.5594C37.7362 37.454 37.5764 37.4252 37.4874 37.4815C37.4278 37.433 37.3636 37.3819 37.2961 37.3302C37.2058 37.2601 37.1187 37.1959 37.0388 37.1396C37.1187 36.9883 37.1848 36.8292 37.2359 36.6635C37.3433 36.7008 37.4546 36.7382 37.5686 36.7768C37.7742 36.8456 37.9713 36.9091 38.1554 36.9674C38.2418 37.1075 38.5116 37.2771 38.8554 37.3924C39.3053 37.543 39.7107 37.543 39.7611 37.3931C39.8109 37.2431 39.4867 36.9995 39.0368 36.8489C38.6478 36.7192 38.2929 36.7015 38.1711 36.7958C37.9995 36.7349 37.8161 36.672 37.6249 36.6079C37.507 36.5686 37.3924 36.5312 37.2811 36.4952C37.3295 36.2896 37.3564 36.0761 37.3564 35.8554C37.3564 35.8403 37.3551 35.8253 37.3551 35.8095C37.7009 35.8312 38.1213 35.8443 38.5758 35.8443C38.826 35.8443 39.0657 35.8403 39.289 35.8331C39.4344 36.0577 39.7919 36.2169 40.2111 36.2169C40.7592 36.2169 41.2039 35.9451 41.2039 35.6091C41.2039 35.2738 40.7592 35.0014 40.2111 35.0014Z" fill="#6CB052"/>
<path d="M62.1038 32.5222C60.2485 32.5222 58.7449 31.0185 58.7449 29.1639C58.7449 27.3093 60.2485 25.8056 62.1038 25.8056C63.9585 25.8056 65.4621 27.3093 65.4621 29.1639C65.4621 31.0185 63.9585 32.5222 62.1038 32.5222ZM68.8957 28.4678C68.4831 28.2674 67.9854 28.4389 67.785 28.8515C67.7359 28.9524 67.709 29.0585 67.7025 29.1632L66.2237 29.1475C66.2211 28.4828 66.0607 27.8548 65.7784 27.2994L66.2709 27.0178C66.4811 27.2745 66.8518 27.3505 67.1498 27.1802C67.4811 26.9903 67.5964 26.5666 67.4065 26.2352C67.2166 25.9032 66.7935 25.7879 66.4615 25.9779C66.1779 26.1403 66.0535 26.4723 66.1412 26.7729L65.6448 27.0571C65.3187 26.5103 64.8701 26.046 64.3364 25.7008L65.1458 24.5391C65.3626 24.6118 65.6082 24.5961 65.8223 24.4736C66.2205 24.2457 66.3587 23.7375 66.1308 23.3393C65.9029 22.9411 65.3947 22.803 64.9965 23.0309C64.5983 23.2588 64.4601 23.7663 64.688 24.1651C64.7437 24.2621 64.8164 24.3439 64.8996 24.4081L64.0986 25.5581C63.5544 25.2568 62.9356 25.0748 62.2767 25.0479V24.6177C62.6042 24.5627 62.8537 24.2791 62.8537 23.9359C62.8537 23.5535 62.5439 23.2431 62.1615 23.2431C61.779 23.2431 61.4686 23.5535 61.4686 23.9359C61.4686 24.2627 61.6952 24.5358 61.9997 24.6085V25.0453C61.3226 25.0617 60.686 25.2418 60.128 25.5476L59.5668 24.3629C59.7371 24.211 59.8451 23.9896 59.8451 23.7434C59.8451 23.2843 59.4732 22.9123 59.0141 22.9123C58.5557 22.9123 58.1837 23.2843 58.1837 23.7434C58.1837 24.2025 58.5557 24.5744 59.0141 24.5744C59.1267 24.5744 59.2335 24.5515 59.331 24.5116L59.8884 25.6891C59.3441 26.0375 58.887 26.5096 58.557 27.0663L58.0972 26.8037C58.185 26.5031 58.0606 26.1711 57.777 26.0086C57.445 25.8187 57.0219 25.934 56.832 26.266C56.6421 26.5974 56.7573 27.0205 57.0894 27.2104C57.3867 27.3813 57.7574 27.3053 57.9676 27.0486L58.4234 27.3093C58.1424 27.8672 57.9833 28.4966 57.9833 29.1639C57.9833 29.1691 57.9833 29.1737 57.9833 29.179L56.536 29.194C56.5294 29.0892 56.5026 28.9832 56.4541 28.8823C56.2531 28.4697 55.7554 28.2981 55.3428 28.4985C54.9302 28.6996 54.7586 29.1973 54.9597 29.6099C55.1601 30.0225 55.6578 30.194 56.0704 29.993C56.2924 29.8856 56.4436 29.6917 56.5052 29.4717L57.9938 29.456C58.0376 30.0853 58.2236 30.676 58.519 31.196L57.9676 31.5117C57.7574 31.255 57.3867 31.1796 57.0894 31.3499C56.7573 31.5398 56.6421 31.9629 56.832 32.2949C57.0219 32.6263 57.445 32.7416 57.777 32.5516C58.0606 32.3892 58.185 32.0572 58.0972 31.7566L58.6637 31.4324C59.0016 31.9432 59.4489 32.3742 59.9735 32.6918L59.331 34.0487C59.2335 34.0088 59.1267 33.9858 59.0141 33.9858C58.5557 33.9858 58.1837 34.3578 58.1837 34.8169C58.1837 35.276 58.5557 35.6479 59.0141 35.6479C59.4732 35.6479 59.8451 35.276 59.8451 34.8169C59.8451 34.5707 59.7371 34.3493 59.5668 34.1974L60.2158 32.8273C60.7528 33.1044 61.3579 33.2668 61.9997 33.2825V33.9518C61.6952 34.0251 61.4686 34.2982 61.4686 34.625C61.4686 35.0075 61.779 35.3172 62.1615 35.3172C62.5439 35.3172 62.8537 35.0075 62.8537 34.625C62.8537 34.2819 62.6042 33.9976 62.2767 33.9426V33.2805C62.8884 33.255 63.466 33.0965 63.9801 32.8326L64.8996 34.1522C64.8164 34.217 64.7437 34.2982 64.688 34.3958C64.4601 34.794 64.5983 35.3015 64.9965 35.5294C65.3947 35.7573 65.9029 35.6191 66.1308 35.221C66.3587 34.8228 66.2205 34.3153 65.8223 34.0874C65.6082 33.9649 65.3626 33.9485 65.1458 34.0212L64.2237 32.6977C64.7489 32.3814 65.1982 31.9511 65.5374 31.4416L66.1412 31.7874C66.0535 32.088 66.1779 32.42 66.4615 32.5824C66.7935 32.7723 67.2166 32.6577 67.4065 32.3257C67.5964 31.9937 67.4811 31.5706 67.1498 31.3807C66.8518 31.2104 66.4811 31.2857 66.2709 31.5425L65.6828 31.2058C65.9867 30.6747 66.1753 30.0703 66.2152 29.4245L67.7333 29.4409C67.7955 29.661 67.9468 29.8542 68.1681 29.9622C68.5807 30.1633 69.0784 29.9917 69.2788 29.5791C69.4799 29.1665 69.3083 28.6688 68.8957 28.4678Z" fill="#75BC5A"/>
<path d="M60.4073 28.1252C60.4073 27.915 60.237 27.7441 60.0262 27.7441C59.816 27.7441 59.6457 27.915 59.6457 28.1252C59.6457 28.3354 59.816 28.5063 60.0262 28.5063C60.237 28.5063 60.4073 28.3354 60.4073 28.1252Z" fill="#75BC5A"/>
<path d="M61.3938 29.9602C61.3938 29.6445 61.1378 29.3891 60.8221 29.3891C60.5071 29.3891 60.251 29.6445 60.251 29.9602C60.251 30.2758 60.5071 30.5312 60.8221 30.5312C61.1378 30.5312 61.3938 30.2758 61.3938 29.9602Z" fill="#75BC5A"/>
<path d="M61.7921 30.9819C61.4764 30.9819 61.2204 31.2373 61.2204 31.553C61.2204 31.8686 61.4764 32.124 61.7921 32.124C62.1077 32.124 62.3631 31.8686 62.3631 31.553C62.3631 31.2373 62.1077 30.9819 61.7921 30.9819Z" fill="#75BC5A"/>
<path d="M61.6192 26.9824C61.83 26.9824 62.0003 26.8121 62.0003 26.6019C62.0003 26.3911 61.83 26.2208 61.6192 26.2208C61.409 26.2208 61.2387 26.3911 61.2387 26.6019C61.2387 26.8121 61.409 26.9824 61.6192 26.9824Z" fill="#75BC5A"/>
<path d="M61.8616 27.5882C61.5459 27.5882 61.2899 27.8442 61.2899 28.1599C61.2899 28.4755 61.5459 28.731 61.8616 28.731C62.1766 28.731 62.4326 28.4755 62.4326 28.1599C62.4326 27.8442 62.1766 27.5882 61.8616 27.5882Z" fill="#75BC5A"/>
<path d="M63.8697 30.3584C63.5541 30.3584 63.2987 30.6145 63.2987 30.9295C63.2987 31.2452 63.5541 31.5012 63.8697 31.5012C64.1854 31.5012 64.4408 31.2452 64.4408 30.9295C64.4408 30.6145 64.1854 30.3584 63.8697 30.3584Z" fill="#75BC5A"/>
<path d="M63.7656 28.852C63.7656 29.0622 63.9366 29.2332 64.1468 29.2332C64.357 29.2332 64.5273 29.0622 64.5273 28.852C64.5273 28.6418 64.357 28.4715 64.1468 28.4715C63.9366 28.4715 63.7656 28.6418 63.7656 28.852Z" fill="#75BC5A"/>
<path d="M62.9348 29.6485C62.7246 29.6485 62.5543 29.8194 62.5543 30.0297C62.5543 30.2399 62.7246 30.4102 62.9348 30.4102C63.1456 30.4102 63.3159 30.2399 63.3159 30.0297C63.3159 29.8194 63.1456 29.6485 62.9348 29.6485Z" fill="#75BC5A"/>
<path d="M63.4546 27.6228C63.7696 27.6228 64.0257 27.3674 64.0257 27.0517C64.0257 26.7361 63.7696 26.4807 63.4546 26.4807C63.1389 26.4807 62.8829 26.7361 62.8829 27.0517C62.8829 27.3674 63.1389 27.6228 63.4546 27.6228Z" fill="#75BC5A"/>
<path d="M43.1277 43.3834C42.9868 43.3834 42.8725 43.2688 42.8725 43.128C42.8725 42.9872 42.9868 42.8733 43.1277 42.8733C43.2686 42.8733 43.3829 42.9872 43.3829 43.128C43.3829 43.2688 43.2686 43.3834 43.1277 43.3834ZM42.5769 43.6022C42.4829 43.6022 42.4067 43.5262 42.4067 43.4319C42.4067 43.3383 42.4829 43.2616 42.5769 43.2616C42.6708 43.2616 42.747 43.3383 42.747 43.4319C42.747 43.5262 42.6708 43.6022 42.5769 43.6022ZM42.2488 42.9984C42.2018 42.9984 42.1637 42.9604 42.1637 42.9132C42.1637 42.8667 42.2018 42.8287 42.2488 42.8287C42.2957 42.8287 42.3338 42.8667 42.3338 42.9132C42.3338 42.9604 42.2957 42.9984 42.2488 42.9984ZM45.3192 42.7069C45.0697 42.7069 44.8614 42.8137 44.809 42.9571C44.699 42.9538 44.5811 42.9519 44.458 42.9519C44.2137 42.9519 43.9881 42.9591 43.804 42.9709C43.7916 42.8739 43.7696 42.7796 43.739 42.6893C43.7891 42.6729 43.8405 42.6565 43.8929 42.6388C43.9936 42.6048 44.09 42.572 44.1803 42.5399C44.2445 42.5897 44.4312 42.5805 44.6362 42.5118C44.8732 42.4325 45.0435 42.3042 45.0173 42.2256C44.9911 42.1464 44.7776 42.147 44.5405 42.2262C44.3598 42.2865 44.2177 42.3756 44.1725 42.4496C44.0756 42.4803 43.9713 42.5137 43.8633 42.5504C43.8097 42.5681 43.7575 42.5858 43.7067 42.6035C43.6717 42.5183 43.6289 42.4384 43.5794 42.3625C43.6227 42.3317 43.6703 42.297 43.72 42.259C43.7555 42.2315 43.7892 42.2046 43.8204 42.1791C43.8673 42.2086 43.9514 42.1935 44.0232 42.1378C44.107 42.0737 44.143 41.98 44.1031 41.9289C44.0638 41.8778 43.9645 41.8883 43.881 41.9525C43.8172 42.0016 43.7815 42.0678 43.7856 42.1195C43.7509 42.1444 43.7139 42.1719 43.6758 42.2014C43.6272 42.2387 43.5821 42.2747 43.5421 42.3088C43.4959 42.2446 43.445 42.1843 43.3892 42.1287C43.4113 42.1064 43.4361 42.0789 43.4617 42.0494C43.4773 42.0317 43.4921 42.0141 43.5056 41.9977C43.5332 42.0082 43.5753 41.9911 43.607 41.9545C43.6436 41.9126 43.6524 41.8602 43.6266 41.8372C43.6007 41.815 43.55 41.8314 43.5133 41.8733C43.4853 41.9054 43.4737 41.944 43.4813 41.9702C43.4658 41.9866 43.4495 42.0049 43.4327 42.0239C43.4075 42.0534 43.3845 42.0809 43.3651 42.1058C43.2972 42.0416 43.2233 41.9833 43.144 41.9329C43.1642 41.8962 43.1847 41.8595 43.2054 41.8215C43.2562 41.7285 43.3044 41.6382 43.3488 41.5537C43.4295 41.5458 43.5601 41.4122 43.6634 41.2223C43.783 41.0029 43.8208 40.7934 43.7477 40.7534C43.6746 40.7135 43.5184 40.8588 43.3988 41.0782C43.3074 41.2459 43.264 41.4076 43.2812 41.4928C43.231 41.5812 43.1778 41.6768 43.1233 41.7763C43.1032 41.8137 43.0835 41.8497 43.0644 41.8857C42.9808 41.8399 42.8923 41.8012 42.7998 41.7724C42.8067 41.737 42.8135 41.6997 42.82 41.6604C42.8274 41.6165 42.8338 41.574 42.8393 41.534C42.894 41.5236 42.945 41.4554 42.96 41.3657C42.9774 41.2616 42.94 41.1686 42.8764 41.1581C42.8128 41.1476 42.7471 41.223 42.7297 41.3271C42.7164 41.4063 42.7352 41.479 42.7732 41.5137C42.7648 41.5563 42.7564 41.6015 42.7485 41.6486C42.7425 41.6847 42.7371 41.72 42.7323 41.7534C42.6391 41.7292 42.5422 41.7135 42.4427 41.7082C42.4443 41.6277 42.4452 41.5439 42.4452 41.4574C42.4452 41.3349 42.4435 41.2164 42.4402 41.1064C42.5832 41.054 42.6901 40.8457 42.6901 40.5969C42.6901 40.3081 42.5469 40.0743 42.3703 40.0743C42.1936 40.0743 42.0504 40.3081 42.0504 40.5969C42.0504 40.8169 42.1341 41.0055 42.2525 41.0822C42.2488 41.1994 42.2468 41.3258 42.2468 41.4574C42.2468 41.5452 42.2477 41.6296 42.2493 41.7115C42.1641 41.7187 42.0808 41.7325 42.0003 41.7534C41.9955 41.72 41.9901 41.6847 41.9841 41.6486C41.9761 41.6015 41.9678 41.5563 41.9594 41.5137C41.9973 41.479 42.0161 41.4063 42.0028 41.3271C41.9855 41.223 41.9198 41.1476 41.8562 41.1581C41.7926 41.1686 41.7551 41.2616 41.7725 41.3657C41.7876 41.4554 41.8387 41.5236 41.8933 41.534C41.8988 41.574 41.9053 41.6165 41.9127 41.6604C41.9192 41.6997 41.926 41.737 41.9328 41.7724C41.8402 41.8012 41.7518 41.8392 41.6682 41.8857C41.649 41.8497 41.6294 41.8137 41.6093 41.7763C41.5548 41.6768 41.5016 41.5812 41.4514 41.4928C41.4686 41.4076 41.4252 41.2459 41.3338 41.0782C41.2142 40.8588 41.058 40.7135 40.985 40.7534C40.9119 40.7934 40.9496 41.0029 41.0692 41.2223C41.1725 41.4122 41.303 41.5458 41.3838 41.5537C41.4282 41.6382 41.4764 41.7285 41.5273 41.8215C41.548 41.8595 41.5684 41.8962 41.5886 41.9329C41.5093 41.9833 41.4353 42.0416 41.3675 42.1058C41.3481 42.0809 41.3251 42.0534 41.2998 42.0239C41.2831 42.0049 41.2668 41.9866 41.2514 41.9702C41.2589 41.944 41.2472 41.9054 41.2192 41.8733C41.1825 41.8314 41.1319 41.815 41.106 41.8372C41.0802 41.8602 41.089 41.9126 41.1256 41.9545C41.1573 41.9911 41.1994 42.0082 41.2269 41.9977C41.2405 42.0141 41.2552 42.0317 41.2708 42.0494C41.2965 42.0789 41.3212 42.1058 41.3432 42.1287C41.2876 42.1843 41.2366 42.2446 41.1904 42.3081C41.1504 42.2747 41.1053 42.2387 41.0568 42.2014C41.0187 42.1719 40.9817 42.1444 40.947 42.1195C40.9512 42.0678 40.9153 42.0016 40.8516 41.9525C40.7681 41.8883 40.6685 41.8778 40.6292 41.9289C40.5899 41.98 40.6256 42.0737 40.7091 42.1378C40.7812 42.1935 40.8652 42.2086 40.9122 42.1791C40.9434 42.2046 40.9772 42.2315 41.0127 42.259C41.0622 42.297 41.1098 42.3317 41.1531 42.3625C41.1035 42.4378 41.0608 42.5183 41.0258 42.6028C40.975 42.5858 40.9228 42.5681 40.8694 42.5504C40.7612 42.5137 40.6573 42.4803 40.5604 42.4496C40.5151 42.3756 40.3731 42.2865 40.192 42.2262C39.9551 42.147 39.7416 42.1464 39.7153 42.2256C39.6889 42.3042 39.8595 42.4325 40.0965 42.5118C40.3011 42.5805 40.488 42.5897 40.5522 42.5399C40.6424 42.572 40.739 42.6048 40.8397 42.6388C40.8921 42.6565 40.9434 42.6729 40.9935 42.6893C40.9629 42.7796 40.9409 42.8733 40.9284 42.9709C40.7444 42.9591 40.5186 42.9519 40.2743 42.9519C40.1517 42.9519 40.0337 42.9538 39.9232 42.9571C39.8711 42.8137 39.6629 42.7069 39.4136 42.7069C39.1251 42.7069 38.8911 42.8504 38.8911 43.0272C38.8911 43.2033 39.1251 43.3468 39.4136 43.3468C39.6342 43.3468 39.8224 43.2629 39.8991 43.1444C40.0164 43.1483 40.1427 43.1503 40.2743 43.1503C40.5135 43.1503 40.7349 43.1437 40.9168 43.1326C40.9166 43.1405 40.9162 43.1483 40.9162 43.1562C40.9162 43.2374 40.9231 43.3166 40.9359 43.3939C40.8305 43.4273 40.7161 43.464 40.5967 43.5039C40.4959 43.538 40.3994 43.5707 40.3092 43.6028C40.245 43.5531 40.0581 43.5622 39.8534 43.631C39.6165 43.7102 39.4458 43.8386 39.4722 43.9172C39.4986 43.9964 39.7121 43.9958 39.949 43.9165C40.1301 43.8563 40.2721 43.7672 40.3174 43.6932C40.4143 43.6624 40.5182 43.629 40.6263 43.593C40.7418 43.5544 40.8517 43.5164 40.9529 43.4804C40.9791 43.595 41.0189 43.705 41.0706 43.8078C41.0195 43.8425 40.9609 43.8851 40.8992 43.9329C40.8637 43.9597 40.83 43.9866 40.7988 44.0121C40.7518 43.9827 40.6678 43.9977 40.5957 44.0534C40.5122 44.1176 40.4764 44.2112 40.5158 44.2623C40.5552 44.3134 40.6547 44.3029 40.7381 44.2387C40.802 44.1896 40.8377 44.1235 40.8335 44.0717C40.8683 44.0468 40.9053 44.0193 40.9434 43.9899C41.0015 43.9453 41.0549 43.9021 41.1002 43.8635C41.1429 43.9394 41.192 44.0121 41.2473 44.0789C41.2194 44.1058 41.1837 44.1438 41.146 44.1876C41.1304 44.2053 41.1157 44.223 41.1021 44.2394C41.0746 44.2289 41.0325 44.2459 41.0008 44.2819C40.9641 44.3245 40.9553 44.3769 40.9812 44.3992C41.0071 44.4221 41.0578 44.4057 41.0944 44.3638C41.1224 44.3311 41.1341 44.2931 41.1265 44.2669C41.142 44.2499 41.1583 44.2322 41.1751 44.2125C41.2114 44.1706 41.2431 44.1313 41.266 44.1005C41.3341 44.1798 41.4106 44.2518 41.4942 44.3147C41.4338 44.4201 41.3682 44.5374 41.3004 44.6618C41.2496 44.7548 41.2014 44.8452 41.157 44.9296C41.0762 44.9368 40.9457 45.0711 40.8424 45.2604C40.7228 45.4797 40.685 45.69 40.7581 45.7299C40.8312 45.7698 40.9874 45.6245 41.107 45.4051C41.1984 45.2374 41.2417 45.075 41.2246 44.9905C41.2747 44.9021 41.3279 44.8065 41.3825 44.7063C41.4484 44.5858 41.5098 44.4699 41.5645 44.3645C41.6624 44.4299 41.7689 44.483 41.8816 44.5236C41.8652 44.5917 41.8476 44.6781 41.8317 44.7738C41.8243 44.8176 41.8178 44.8602 41.8123 44.9002C41.7577 44.9106 41.7066 44.9787 41.6915 45.0691C41.6742 45.1726 41.7116 45.2656 41.7752 45.2761C41.8388 45.2865 41.9045 45.2112 41.9218 45.1071C41.9352 45.0279 41.9163 44.9552 41.8784 44.9205C41.8868 44.8785 41.8951 44.8334 41.903 44.7856C41.9184 44.6945 41.9297 44.61 41.9365 44.5419C42.0558 44.5786 42.1819 44.6002 42.3123 44.6055C42.3118 44.6474 42.3116 44.6906 42.3116 44.7338C42.3116 44.8655 42.3136 44.9918 42.3173 45.1091C42.199 45.1857 42.1152 45.3743 42.1152 45.595C42.1152 45.8831 42.2584 46.1169 42.4351 46.1169C42.6118 46.1169 42.755 45.8831 42.755 45.595C42.755 45.3455 42.648 45.1372 42.505 45.0848C42.5082 44.9748 42.51 44.8569 42.51 44.7338C42.51 44.6886 42.5097 44.6434 42.5093 44.5996C42.614 44.5891 42.7153 44.5675 42.8123 44.536C42.8126 44.5387 42.8129 44.5406 42.8133 44.5426C42.8213 44.5897 42.8296 44.6356 42.838 44.6775C42.8 44.7122 42.7812 44.7849 42.7945 44.8641C42.812 44.9683 42.8776 45.0436 42.9412 45.0331C43.0048 45.0226 43.0423 44.9296 43.0249 44.8255C43.0098 44.7358 42.9588 44.6677 42.9041 44.6572C42.8987 44.6172 42.8922 44.5747 42.8848 44.5308C42.8837 44.5243 42.8826 44.5184 42.8815 44.5118C42.981 44.4738 43.0751 44.426 43.1627 44.3684C43.1711 44.3835 43.1795 44.3992 43.1881 44.4149C43.2426 44.5151 43.2958 44.61 43.346 44.6985C43.3288 44.7836 43.3722 44.9453 43.4636 45.113C43.5832 45.3324 43.7394 45.4778 43.8125 45.4385C43.8855 45.3985 43.8478 45.1883 43.7282 44.9689C43.6249 44.7797 43.4944 44.6454 43.4136 44.6382C43.3691 44.5531 43.321 44.4634 43.2701 44.3697C43.2598 44.3514 43.2496 44.3324 43.2395 44.314C43.3175 44.2551 43.3891 44.1883 43.4537 44.1149C43.4672 44.132 43.482 44.149 43.4976 44.1673C43.5143 44.1863 43.5306 44.2047 43.5461 44.2217C43.5385 44.2479 43.5502 44.2859 43.5782 44.318C43.6149 44.3605 43.6655 44.3762 43.6913 44.354C43.7172 44.3317 43.7084 44.2793 43.6718 44.2368C43.6401 44.2001 43.598 44.1837 43.5705 44.1942C43.5569 44.1772 43.5422 44.1601 43.5266 44.1418C43.5097 44.1228 43.4932 44.1045 43.4777 44.0874C43.5292 44.0259 43.5755 43.9604 43.6164 43.891C43.654 43.9224 43.6959 43.9558 43.7406 43.9899C43.7786 44.0193 43.8156 44.0468 43.8504 44.0717C43.8462 44.1235 43.882 44.1896 43.9458 44.2387C44.0291 44.3029 44.1286 44.3134 44.1679 44.2623C44.2079 44.2112 44.1718 44.1176 44.088 44.0534C44.016 43.9977 43.9321 43.9827 43.8853 44.0121C43.854 43.9866 43.8203 43.9597 43.7848 43.9329C43.7371 43.8962 43.6912 43.8622 43.6491 43.832C43.6911 43.7528 43.726 43.669 43.7528 43.5819C43.8094 43.6015 43.868 43.6212 43.928 43.6415C44.0363 43.6775 44.1404 43.7115 44.2373 43.7417C44.2825 43.8157 44.424 43.9047 44.6054 43.9656C44.8424 44.0449 45.0559 44.0449 45.0821 43.9656C45.1083 43.887 44.9381 43.7587 44.701 43.6794C44.496 43.6113 44.3094 43.6015 44.2452 43.6513C44.1548 43.6192 44.0585 43.5865 43.9577 43.5524C43.8958 43.5321 43.8352 43.5118 43.7765 43.4928C43.8023 43.3847 43.8162 43.2721 43.8162 43.1562C43.8162 43.1483 43.8158 43.1405 43.8156 43.1326C43.9976 43.1437 44.219 43.1503 44.458 43.1503C44.5897 43.1503 44.716 43.1483 44.8333 43.1444C44.9099 43.2629 45.0985 43.3468 45.3192 43.3468C45.6074 43.3468 45.8411 43.2033 45.8411 43.0272C45.8411 42.8504 45.6074 42.7069 45.3192 42.7069Z" fill="#6CB052"/>
<path d="M45.9933 30.2646C45.0169 30.2646 44.2251 29.4728 44.2251 28.497C44.2251 27.5206 45.0169 26.7288 45.9933 26.7288C46.9697 26.7288 47.7608 27.5206 47.7608 28.497C47.7608 29.4728 46.9697 30.2646 45.9933 30.2646ZM49.5683 28.1303C49.3516 28.0249 49.0896 28.1152 48.9835 28.3327C48.958 28.3851 48.9442 28.4414 48.9403 28.4964L48.1616 28.4885C48.1603 28.1382 48.0765 27.8074 47.9278 27.5154L48.1865 27.3674C48.2978 27.5023 48.4924 27.5422 48.6495 27.4525C48.8237 27.3523 48.8846 27.1296 48.7844 26.9548C48.6849 26.7806 48.4622 26.7197 48.2874 26.8199C48.1381 26.905 48.0726 27.0799 48.1184 27.2383L47.8571 27.3877C47.6855 27.1002 47.4498 26.8552 47.1688 26.6738L47.5945 26.0622C47.7091 26.1008 47.8381 26.0923 47.9508 26.0275C48.1603 25.9076 48.233 25.6404 48.1132 25.4309C47.9927 25.2213 47.7255 25.1486 47.5159 25.2684C47.3064 25.3883 47.2337 25.6555 47.3535 25.865C47.383 25.9168 47.421 25.9594 47.4648 25.9934L47.0431 26.5985C46.7569 26.44 46.4314 26.3444 46.0843 26.33V26.1034C46.2566 26.0746 46.3882 25.9253 46.3882 25.7445C46.3882 25.5435 46.2251 25.3804 46.0234 25.3804C45.8224 25.3804 45.6593 25.5435 45.6593 25.7445C45.6593 25.9168 45.7785 26.0602 45.9383 26.0988V26.3287C45.582 26.3372 45.2467 26.4322 44.9533 26.5933L44.658 25.9698C44.7477 25.8893 44.8047 25.7734 44.8047 25.6437C44.8047 25.402 44.6089 25.2062 44.3672 25.2062C44.1256 25.2062 43.9296 25.402 43.9296 25.6437C43.9296 25.8847 44.1256 26.0805 44.3672 26.0805C44.4261 26.0805 44.4825 26.0687 44.5336 26.0478L44.8269 26.6679C44.5408 26.8507 44.2998 27.0995 44.1262 27.3929L43.8842 27.2541C43.9305 27.0962 43.865 26.9214 43.7157 26.8356C43.541 26.736 43.3183 26.7963 43.2183 26.9712C43.1183 27.146 43.1789 27.3687 43.3536 27.4689C43.5103 27.5579 43.7054 27.5186 43.8161 27.3831L44.0561 27.5206C43.9079 27.814 43.8243 28.1454 43.8243 28.497C43.8243 28.4997 43.8244 28.5023 43.8244 28.5049L43.0623 28.5128C43.0589 28.4571 43.045 28.4014 43.0192 28.3484C42.9134 28.1316 42.6517 28.0412 42.4344 28.1467C42.2172 28.2521 42.1268 28.5141 42.2326 28.7315C42.3383 28.9489 42.6001 29.0393 42.8173 28.9332C42.934 28.8762 43.0137 28.7747 43.0464 28.6588L43.8298 28.6503C43.8531 28.9817 43.9507 29.2927 44.1066 29.5665L43.8161 29.7328C43.7054 29.5973 43.5103 29.558 43.3536 29.647C43.1789 29.7472 43.1183 29.9699 43.2183 30.1447C43.3183 30.3196 43.541 30.3798 43.7157 30.2803C43.865 30.1945 43.9305 30.0197 43.8842 29.8618L44.1825 29.6909C44.36 29.9594 44.5958 30.1867 44.8721 30.3537L44.5336 31.0681C44.4825 31.0472 44.4261 31.0354 44.3672 31.0354C44.1256 31.0354 43.9296 31.2312 43.9296 31.4729C43.9296 31.7139 44.1256 31.9097 44.3672 31.9097C44.6089 31.9097 44.8047 31.7139 44.8047 31.4729C44.8047 31.3425 44.7477 31.2266 44.658 31.1461L44.9998 30.425C45.2821 30.5711 45.6004 30.6562 45.9383 30.6647V31.0171C45.7785 31.0557 45.6593 31.1991 45.6593 31.3713C45.6593 31.5724 45.8224 31.7355 46.0234 31.7355C46.2251 31.7355 46.3882 31.5724 46.3882 31.3713C46.3882 31.1906 46.2566 31.0413 46.0843 31.0125V30.6634C46.4065 30.6503 46.7104 30.5671 46.9809 30.4283L47.4648 31.1225C47.421 31.1565 47.383 31.1991 47.3535 31.2509C47.2337 31.4604 47.3064 31.7276 47.5159 31.8475C47.7255 31.9673 47.9927 31.8946 48.1132 31.685C48.233 31.4755 48.1603 31.2083 47.9508 31.0884C47.8381 31.0236 47.7091 31.0151 47.5945 31.0537L47.1092 30.3569C47.3856 30.1906 47.622 29.964 47.8008 29.6955L48.1184 29.8782C48.0726 30.036 48.1381 30.2109 48.2874 30.296C48.4622 30.3962 48.6849 30.336 48.7844 30.1611C48.8846 29.9863 48.8237 29.7636 48.6495 29.6634C48.4924 29.5737 48.2978 29.6136 48.1865 29.7485L47.8774 29.5717C48.0372 29.2921 48.1361 28.9738 48.1577 28.6339L48.9567 28.6424C48.9894 28.7583 49.0687 28.8605 49.1859 28.9168C49.4026 29.0229 49.6646 28.9325 49.77 28.7151C49.8761 28.4977 49.7858 28.2364 49.5683 28.1303Z" fill="#75BC5A"/>
<path d="M45.0997 27.9502C45.0997 27.8396 45.01 27.7498 44.8993 27.7498C44.7886 27.7498 44.6989 27.8396 44.6989 27.9502C44.6989 28.0609 44.7886 28.1506 44.8993 28.1506C45.01 28.1506 45.0997 28.0609 45.0997 27.9502Z" fill="#75BC5A"/>
<path d="M45.6192 28.9162C45.6192 28.7499 45.4849 28.615 45.3186 28.615C45.1529 28.615 45.018 28.7499 45.018 28.9162C45.018 29.0819 45.1529 29.2168 45.3186 29.2168C45.4849 29.2168 45.6192 29.0819 45.6192 28.9162Z" fill="#75BC5A"/>
<path d="M45.8291 29.454C45.6635 29.454 45.5285 29.5882 45.5285 29.7546C45.5285 29.9209 45.6635 30.0552 45.8291 30.0552C45.9955 30.0552 46.1304 29.9209 46.1304 29.7546C46.1304 29.5882 45.9955 29.454 45.8291 29.454Z" fill="#75BC5A"/>
<path d="M45.7378 27.3484C45.8485 27.3484 45.9382 27.2587 45.9382 27.148C45.9382 27.0373 45.8485 26.9476 45.7378 26.9476C45.6271 26.9476 45.5374 27.0373 45.5374 27.148C45.5374 27.2587 45.6271 27.3484 45.7378 27.3484Z" fill="#75BC5A"/>
<path d="M45.8652 27.6674C45.6988 27.6674 45.5646 27.8024 45.5646 27.968C45.5646 28.1344 45.6988 28.2693 45.8652 28.2693C46.0315 28.2693 46.1658 28.1344 46.1658 27.968C46.1658 27.8024 46.0315 27.6674 45.8652 27.6674Z" fill="#75BC5A"/>
<path d="M46.9223 29.1259C46.7566 29.1259 46.6217 29.2601 46.6217 29.4265C46.6217 29.5921 46.7566 29.7271 46.9223 29.7271C47.0887 29.7271 47.2229 29.5921 47.2229 29.4265C47.2229 29.2601 47.0887 29.1259 46.9223 29.1259Z" fill="#75BC5A"/>
<path d="M46.8682 28.3328C46.8682 28.4435 46.9579 28.5332 47.0686 28.5332C47.1792 28.5332 47.269 28.4435 47.269 28.3328C47.269 28.2221 47.1792 28.1324 47.0686 28.1324C46.9579 28.1324 46.8682 28.2221 46.8682 28.3328Z" fill="#75BC5A"/>
<path d="M46.4303 28.7518C46.3197 28.7518 46.2299 28.8415 46.2299 28.9522C46.2299 29.0629 46.3197 29.1526 46.4303 29.1526C46.541 29.1526 46.6307 29.0629 46.6307 28.9522C46.6307 28.8415 46.541 28.7518 46.4303 28.7518Z" fill="#75BC5A"/>
<path d="M46.7037 27.6858C46.87 27.6858 47.0043 27.5515 47.0043 27.3852C47.0043 27.2189 46.87 27.0846 46.7037 27.0846C46.538 27.0846 46.4031 27.2189 46.4031 27.3852C46.4031 27.5515 46.538 27.6858 46.7037 27.6858Z" fill="#75BC5A"/>
<path d="M50.9757 20.9961C49.1354 20.9961 47.6436 19.5049 47.6436 17.6647C47.6436 15.8238 49.1354 14.332 50.9757 14.332C52.8159 14.332 54.3077 15.8238 54.3077 17.6647C54.3077 19.5049 52.8159 20.9961 50.9757 20.9961ZM57.7138 16.9738C57.3045 16.7747 56.8114 16.945 56.6116 17.3543C56.5632 17.4545 56.537 17.5592 56.5304 17.664L55.0628 17.6483C55.0602 16.9882 54.9017 16.3654 54.6214 15.8146L55.11 15.535C55.3189 15.7897 55.6863 15.8651 55.9816 15.6961C56.311 15.5075 56.425 15.0877 56.2364 14.7583C56.0484 14.4289 55.6286 14.3149 55.2992 14.5035C55.0176 14.6646 54.8945 14.994 54.9816 15.292L54.4885 15.5743C54.1656 15.032 53.7203 14.5703 53.1911 14.2285L53.994 13.0759C54.2088 13.1479 54.4525 13.1322 54.6646 13.0104C55.0595 12.7845 55.1971 12.2808 54.9705 11.8853C54.7445 11.4904 54.2409 11.3535 53.8454 11.5795C53.4505 11.8054 53.3136 12.3097 53.5395 12.7046C53.5946 12.8008 53.6666 12.882 53.7498 12.9462L52.9547 14.087C52.4151 13.7877 51.8008 13.6077 51.1472 13.5801V13.1538C51.4721 13.0995 51.7196 12.8179 51.7196 12.4773C51.7196 12.0981 51.4118 11.7903 51.0326 11.7903C50.6534 11.7903 50.3456 12.0981 50.3456 12.4773C50.3456 12.8015 50.5703 13.0726 50.8722 13.1446V13.5782C50.2003 13.5946 49.569 13.7733 49.0156 14.0766L48.4583 12.901C48.6279 12.7504 48.7346 12.531 48.7346 12.2861C48.7346 11.8309 48.3659 11.4622 47.9108 11.4622C47.455 11.4622 47.0863 11.8309 47.0863 12.2861C47.0863 12.7419 47.455 13.1106 47.9108 13.1106C48.0214 13.1106 48.1275 13.0883 48.2245 13.0484L48.7778 14.2167C48.2376 14.5618 47.7837 15.0307 47.4563 15.5834L47.0005 15.3228C47.0876 15.0248 46.9645 14.6948 46.6829 14.5337C46.3534 14.3457 45.9337 14.4597 45.7451 14.7891C45.5571 15.1185 45.6711 15.5383 46.0005 15.7262C46.2958 15.8952 46.6632 15.8205 46.8721 15.5658L47.324 15.8244C47.045 16.3778 46.8878 17.0026 46.8878 17.6647C46.8878 17.6693 46.8878 17.6745 46.8878 17.6791L45.4517 17.6942C45.4451 17.59 45.4189 17.4852 45.3698 17.385C45.1707 16.9757 44.6776 16.8055 44.2676 17.0046C43.8585 17.2036 43.6882 17.6974 43.8875 18.1067C44.0869 18.516 44.58 18.6863 44.9893 18.4872C45.2094 18.3798 45.3593 18.1879 45.4215 17.9699L46.8977 17.9541C46.9415 18.5789 47.1256 19.165 47.4189 19.6804L46.8721 19.9935C46.6632 19.7387 46.2958 19.6641 46.0005 19.833C45.6711 20.0216 45.5571 20.4414 45.7451 20.7708C45.9337 21.0996 46.3534 21.2142 46.6829 21.0256C46.9645 20.8645 47.0876 20.5351 47.0005 20.2371L47.563 19.9149C47.8977 20.4218 48.3417 20.8494 48.8623 21.1644L48.2245 22.5109C48.1275 22.4709 48.0214 22.4486 47.9108 22.4486C47.455 22.4486 47.0863 22.818 47.0863 23.2731C47.0863 23.7283 47.455 24.0977 47.9108 24.0977C48.3659 24.0977 48.7346 23.7283 48.7346 23.2731C48.7346 23.0282 48.6279 22.8095 48.4583 22.6582L49.1027 21.2987C49.6351 21.5737 50.2356 21.7348 50.8722 21.7512V22.4146C50.5703 22.4873 50.3456 22.7578 50.3456 23.0819C50.3456 23.4618 50.6534 23.7689 51.0326 23.7689C51.4118 23.7689 51.7196 23.4618 51.7196 23.0819C51.7196 22.742 51.4721 22.4598 51.1472 22.4054V21.7486C51.7543 21.723 52.3267 21.5659 52.8375 21.3046L53.7498 22.613C53.6666 22.6779 53.5946 22.7584 53.5395 22.8547C53.3136 23.2502 53.4505 23.7538 53.8454 23.9798C54.2409 24.2064 54.7445 24.0688 54.9705 23.6739C55.1971 23.2784 55.0595 22.7748 54.6646 22.5488C54.4525 22.427 54.2088 22.4113 53.994 22.4834L53.0785 21.1703C53.6004 20.8566 54.0458 20.4296 54.3817 19.924L54.9816 20.2672C54.8945 20.5652 55.0176 20.8952 55.2992 21.0564C55.6286 21.2443 56.0484 21.1304 56.2364 20.8009C56.425 20.4715 56.311 20.0518 55.9816 19.8638C55.6863 19.6948 55.3189 19.7695 55.11 20.0243L54.5265 19.6903C54.8277 19.1637 55.015 18.5632 55.0549 17.9234L56.5605 17.9391C56.6221 18.1572 56.7727 18.3497 56.9921 18.4564C57.4021 18.6555 57.8952 18.4853 58.0943 18.076C58.294 17.6667 58.1231 17.1735 57.7138 16.9738Z" fill="#75BC5A"/>
<path d="M49.2921 16.6338C49.2921 16.4249 49.1231 16.256 48.9142 16.256C48.706 16.256 48.5364 16.4249 48.5364 16.6338C48.5364 16.8428 48.706 17.0117 48.9142 17.0117C49.1231 17.0117 49.2921 16.8428 49.2921 16.6338Z" fill="#75BC5A"/>
<path d="M50.2709 18.4545C50.2709 18.1415 50.0175 17.8874 49.7044 17.8874C49.3914 17.8874 49.1373 18.1415 49.1373 18.4545C49.1373 18.7676 49.3914 19.021 49.7044 19.021C50.0175 19.021 50.2709 18.7676 50.2709 18.4545Z" fill="#75BC5A"/>
<path d="M50.6662 19.4675C50.3531 19.4675 50.099 19.7216 50.099 20.0346C50.099 20.3476 50.3531 20.6011 50.6662 20.6011C50.9785 20.6011 51.2326 20.3476 51.2326 20.0346C51.2326 19.7216 50.9785 19.4675 50.6662 19.4675Z" fill="#75BC5A"/>
<path d="M50.494 15.5002C50.7029 15.5002 50.8718 15.3306 50.8718 15.1224C50.8718 14.9135 50.7029 14.7445 50.494 14.7445C50.2857 14.7445 50.1161 14.9135 50.1161 15.1224C50.1161 15.3306 50.2857 15.5002 50.494 15.5002Z" fill="#75BC5A"/>
<path d="M50.7344 16.1015C50.4214 16.1015 50.1679 16.3549 50.1679 16.668C50.1679 16.981 50.4214 17.2351 50.7344 17.2351C51.0474 17.2351 51.3015 16.981 51.3015 16.668C51.3015 16.3549 51.0474 16.1015 50.7344 16.1015Z" fill="#75BC5A"/>
<path d="M52.7274 18.8493C52.4144 18.8493 52.1603 19.1034 52.1603 19.4164C52.1603 19.7295 52.4144 19.9829 52.7274 19.9829C53.0404 19.9829 53.2939 19.7295 53.2939 19.4164C53.2939 19.1034 53.0404 18.8493 52.7274 18.8493Z" fill="#75BC5A"/>
<path d="M52.6241 17.3548C52.6241 17.5637 52.7937 17.7327 53.0019 17.7327C53.2109 17.7327 53.3798 17.5637 53.3798 17.3548C53.3798 17.1465 53.2109 16.9769 53.0019 16.9769C52.7937 16.9769 52.6241 17.1465 52.6241 17.3548Z" fill="#75BC5A"/>
<path d="M51.7995 18.1454C51.5912 18.1454 51.4216 18.3143 51.4216 18.5233C51.4216 18.7322 51.5912 18.9011 51.7995 18.9011C52.0084 18.9011 52.178 18.7322 52.178 18.5233C52.178 18.3143 52.0084 18.1454 51.7995 18.1454Z" fill="#75BC5A"/>
<path d="M52.3148 16.1355C52.6278 16.1355 52.8819 15.8821 52.8819 15.569C52.8819 15.256 52.6278 15.0019 52.3148 15.0019C52.0017 15.0019 51.7483 15.256 51.7483 15.569C51.7483 15.8821 52.0017 16.1355 52.3148 16.1355Z" fill="#75BC5A"/>
<path d="M43.9999 84.6151C21.569 84.6151 3.3851 66.4307 3.3851 44.0001C3.3851 21.5693 21.569 3.38541 43.9999 3.38541C66.4306 3.38541 84.6146 21.5693 84.6146 44.0001C84.6146 66.4307 66.4306 84.6151 43.9999 84.6151ZM43.9999 -2.28882e-05C19.6994 -2.28882e-05 0 19.7 0 44.0001C0 68.3005 19.6994 88.0002 43.9999 88.0002C68.3 88.0002 88 68.3005 88 44.0001C88 19.7 68.3 -2.28882e-05 43.9999 -2.28882e-05Z" fill="#6DB253"/>
<path d="M43.9999 83.4121C22.2333 83.4121 4.58799 65.7668 4.58799 44.0003C4.58799 22.2338 22.2333 4.58844 43.9999 4.58844C65.7664 4.58844 83.4117 22.2338 83.4117 44.0003C83.4117 65.7668 65.7664 83.4121 43.9999 83.4121ZM43.9999 4.05208C21.9371 4.05208 4.0517 21.9377 4.0517 44.0003C4.0517 66.0628 21.9371 83.9485 43.9999 83.9485C66.0624 83.9485 83.9481 66.0628 83.9481 44.0003C83.9481 21.9377 66.0624 4.05208 43.9999 4.05208Z" fill="#51ADE5"/>
</svg>
