<svg width="25" height="26" viewBox="0 0 25 26" fill="none" xmlns="http://www.w3.org/2000/svg">
<g clip-path="url(#clip0_1_51)">
<path d="M24.9125 12.7841C24.9125 5.90473 19.3356 0.327881 12.4563 0.327881C5.57685 0.327881 0 5.90473 0 12.7841C0 19.6635 5.57685 25.2404 12.4563 25.2404C19.3356 25.2404 24.9125 19.6635 24.9125 12.7841Z" fill="#05A0EB"/>
<path d="M11.3835 14.0517L11.2182 16.2767C11.454 16.2767 11.5568 16.1801 11.6795 16.062L12.7847 15.0477L15.0756 16.658C15.496 16.8824 15.7915 16.7648 15.9051 16.2864L17.4097 9.52105C17.5437 8.92673 17.1858 8.69321 16.7767 8.84093L7.9375 12.0909C7.33409 12.3148 7.34375 12.6381 7.83409 12.7841L10.0937 13.458L15.3432 10.3046C15.5903 10.1478 15.8142 10.2335 15.629 10.3921L11.3847 14.0523L11.3835 14.0517Z" fill="white"/>
</g>
<defs>
<clipPath id="clip0_1_51">
<rect width="25" height="25.5682" fill="white"/>
</clipPath>
</defs>
</svg>
