<svg width="25" height="26" viewBox="0 0 25 26" fill="none" xmlns="http://www.w3.org/2000/svg">
<g clip-path="url(#clip0_1_57)">
<path d="M24.9125 12.7841C24.9125 5.90473 19.3356 0.327881 12.4563 0.327881C5.57685 0.327881 0 5.90473 0 12.7841C0 19.6635 5.57685 25.2404 12.4563 25.2404C19.3356 25.2404 24.9125 19.6635 24.9125 12.7841Z" fill="#976FCC"/>
<path d="M12.4562 7.30347C9.43068 7.30347 6.97556 9.75801 6.97556 12.7841C6.97382 13.9477 7.34345 15.0815 8.03067 16.0205L7.33295 18.0864L9.51022 17.4074C10.3902 17.9687 11.4125 18.2664 12.4562 18.2654C15.4824 18.2654 17.9375 15.8097 17.9375 12.7841C17.9375 9.75858 15.4824 7.30347 12.4562 7.30347ZM14.9659 15.7239C13.971 16.1222 12.7847 15.7364 11.4869 14.7512C10.1892 13.766 9.33522 12.379 9.27783 11.3495C9.22045 10.3194 10.0585 9.80006 10.5148 9.8029C10.9704 9.80631 11.471 11.2631 11.4778 11.4864C11.4835 11.7126 10.9199 12.1148 10.8972 12.3057C10.875 12.4972 11.6659 13.441 12.0006 13.6961C12.3324 13.9478 13.0176 14.4324 13.3716 14.3881C13.7222 14.3398 13.9551 13.6353 14.1784 13.591C14.4011 13.5461 15.6193 14.1518 15.7409 14.308C15.8614 14.4671 15.8489 15.3734 14.9659 15.7239Z" fill="white"/>
</g>
<defs>
<clipPath id="clip0_1_57">
<rect width="25" height="25.5682" fill="white"/>
</clipPath>
</defs>
</svg>
