<svg width="25" height="26" viewBox="0 0 25 26" fill="none" xmlns="http://www.w3.org/2000/svg">
<g clip-path="url(#clip0_1_54)">
<path d="M24.9125 12.7841C24.9125 5.90473 19.3356 0.327881 12.4563 0.327881C5.57685 0.327881 0 5.90473 0 12.7841C0 19.6635 5.57685 25.2404 12.4563 25.2404C19.3356 25.2404 24.9125 19.6635 24.9125 12.7841Z" fill="#12C868"/>
<path d="M13.7136 7.8772H11.1966C8.75965 7.8772 6.79431 9.64595 6.79431 11.8414V13.5403C6.79431 15.0738 7.77158 16.4675 9.31136 17.1192V19.017C9.31136 19.113 9.40908 19.2011 9.53295 19.2011C9.58602 19.2005 9.6374 19.1823 9.67897 19.1494L11.4983 17.5016H13.7136C16.1528 17.5016 18.1182 15.7329 18.1182 13.5374V11.8386C18.1182 9.64538 16.1528 7.8772 13.7136 7.8772ZM15.3687 15.3062L14.7392 15.8727C14.0608 16.4653 12.3199 15.7852 10.7795 14.3755C9.23977 12.9664 8.55568 11.3704 9.20511 10.7789L9.83408 10.2124C10.0869 10.0022 10.4835 10.013 10.7335 10.23L11.6449 11.0834C11.8778 11.3107 11.8778 11.6499 11.6244 11.8772C11.5557 11.9397 11.4778 11.9732 11.3915 12.0096C11.0733 12.0971 10.9085 12.3738 10.9864 12.6636C11.142 13.292 12.021 14.0755 12.6909 14.2306C13.0006 14.3005 13.3199 14.1425 13.4261 13.8738C13.5324 13.5948 13.8801 13.4397 14.2102 13.5352C14.3079 13.5607 14.3858 13.6232 14.4631 13.6749L15.3744 14.5283C15.6017 14.7329 15.6017 15.0817 15.3687 15.3067V15.3062ZM13.0182 10.5692C12.9489 10.5692 12.8915 10.5692 12.8341 10.5869C12.7278 10.605 12.6125 10.5249 12.6011 10.4136C12.5898 10.3028 12.6704 10.2147 12.7852 10.2045C12.8631 10.1863 12.9403 10.1863 13.0182 10.1863C14.179 10.1863 15.1097 11.0397 15.1273 12.0687C15.1273 12.1386 15.1273 12.2084 15.1068 12.2783C15.0972 12.3308 15.0675 12.3775 15.024 12.4084C14.9805 12.4393 14.9266 12.452 14.8739 12.4437C14.7477 12.4255 14.6704 12.3482 14.6903 12.2346C14.6903 12.1721 14.7102 12.1209 14.7102 12.0687C14.7017 11.2494 13.946 10.5692 13.0182 10.5692ZM14.2767 12.0846C14.267 12.137 14.2372 12.1835 14.1937 12.2143C14.1502 12.2451 14.0964 12.2577 14.0437 12.2494C13.946 12.2317 13.8602 12.1619 13.8602 12.0846C13.8602 11.6755 13.4835 11.3346 13.0267 11.3346C12.9731 11.3411 12.919 11.3267 12.8756 11.2944C12.8323 11.2622 12.803 11.2145 12.7937 11.1613C12.7739 11.0653 12.8716 10.9624 12.9778 10.9516H13.0062C13.7335 10.9516 14.2767 11.4562 14.2767 12.0846ZM15.8829 12.6846C15.8625 12.78 15.7562 12.8494 15.65 12.842C15.5437 12.834 15.4665 12.7283 15.475 12.6323V12.6067C15.5239 12.4414 15.5437 12.2681 15.5437 12.084C15.5437 10.838 14.4119 9.81924 13.0267 9.81924H12.8426C12.7364 9.83742 12.621 9.74936 12.621 9.64595C12.6011 9.54992 12.6989 9.44708 12.8057 9.44708C12.8829 9.44708 12.9608 9.42833 13.0267 9.42833C14.6443 9.42833 15.9687 10.613 15.9687 12.0761C15.9602 12.2755 15.9318 12.4931 15.8829 12.684V12.6846Z" fill="white"/>
</g>
<defs>
<clipPath id="clip0_1_54">
<rect width="25" height="25.5682" fill="white"/>
</clipPath>
</defs>
</svg>
